<?xml version="1.0" encoding="utf-8"?>
<!-- Generator: Adobe Illustrator 28.1.0, SVG Export Plug-In . SVG Version: 6.00 Build 0)  -->
<svg version="1.1" id="Livello_1" xmlns="http://www.w3.org/2000/svg" xmlns:xlink="http://www.w3.org/1999/xlink" x="0px" y="0px"
	 viewBox="0 0 878 134" style="enable-background:new 0 0 878 134;" xml:space="preserve">
<style type="text/css">
	.st0{fill:#D0E1EE;}
	.st1{enable-background:new    ;}
	.st2{opacity:0.2;}
	.st3{fill:#030304;}
	.st4{fill:#202121;}
	.st5{fill:#C6E4DF;}
	.st6{fill:#FFFFFF;}
	.st7{fill:#E5F1F0;}
	.st8{fill:#AFD8D4;}
	.st9{fill:#079095;}
	.st10{fill:#EF775C;}
	.st11{fill:#F7B79A;}
	.st12{fill:#FBDC7E;}
	.st13{fill:#004345;}
	.st14{fill:#05585B;}
	.st15{fill:#EBB294;}
	.st16{opacity:0.2;fill:#030304;enable-background:new    ;}
	.st17{fill:#FEEBB3;}
	.st18{fill:#F2893E;}
	.st19{opacity:0.7;}
	.st20{fill:#5FB8BB;}
	.st21{opacity:0.5;}
	.st22{opacity:0.3;fill:#030304;enable-background:new    ;}
	.st23{opacity:0.2;fill:#FFFFFF;enable-background:new    ;}
	.st24{opacity:0.5;fill:url(#SVGID_1_);enable-background:new    ;}
	.st25{fill:#F8D6A8;}
	.st26{fill:#003032;}
	.st27{opacity:0.1;fill:#030304;enable-background:new    ;}
</style>
<g>
	<rect class="st0" width="878" height="134"/>
	<g>
		<g>
			<g class="st1">
				<g class="st2">
					<path class="st3" d="M126.4,12.4c1.6-0.9,4.2-0.9,5.8,0l76,44.2c1.6,0.9,1.6,2.4,0,3.4L96.7,124.3c-1.6,0.9-4.2,0.9-5.8,0
						L14.9,80.1c-1.6-0.9-1.6-2.4,0-3.4L126.4,12.4z M197.6,62l-74.7-43.4L25.6,74.7l74.7,43.4L197.6,62"/>
				</g>
				<path class="st4" d="M209.6,54v2.3l0,0V54L209.6,54"/>
				<g>
					<polygon class="st5" points="123,14.4 197.8,57.8 100.4,113.9 25.7,70.5 					"/>
				</g>
				<g>
					<path class="st6" d="M126.6,8.2c1.6-0.9,4.2-0.9,5.8,0l76,44.2c1.6,0.9,1.6,2.4,0,3.4L96.9,120.1c-1.6,0.9-4.2,0.9-5.8,0L15,76
						c-1.6-0.9-1.6-2.4,0-3.4L126.6,8.2z M197.8,57.8L123,14.4L25.7,70.5l74.7,43.4L197.8,57.8"/>
				</g>
				<path class="st7" d="M209.6,56.3L209.6,56.3L209.6,56.3V54c0,0.1,0,0.1,0,0.1c0,0.1,0,0.1,0,0.1s0,0.1,0,0.1
					c0,0.1,0,0.1-0.1,0.1c0,0.1,0,0.1-0.1,0.1c0,0.1-0.1,0.1-0.1,0.1l-0.1,0.1c0,0.1-0.1,0.1-0.1,0.1l-0.1,0.1
					c-0.1,0.1-0.1,0.1-0.1,0.2l-0.1,0.1c-0.1,0.1-0.1,0.1-0.1,0.1c-0.1,0.1-0.1,0.1-0.1,0.1c-0.1,0-0.1,0.1-0.1,0.1
					c-0.1,0.1-0.1,0.1-0.2,0.1L96.9,120.1c-0.2,0.1-0.4,0.2-0.6,0.3c-0.1,0-0.1,0.1-0.2,0.1c-0.1,0.1-0.3,0.1-0.4,0.1
					c-0.1,0.1-0.3,0.1-0.4,0.1c-0.2,0.1-0.4,0.1-0.5,0.1c-0.1,0-0.1,0-0.1,0c-0.3,0-0.4,0.1-0.7,0.1c-0.1,0-0.1,0-0.1,0
					c-0.3,0-0.4,0-0.7-0.1c-0.1,0-0.1,0-0.1,0c-0.3,0-0.4-0.1-0.6-0.1c-0.1,0-0.1,0-0.1,0c-0.2-0.1-0.4-0.1-0.6-0.2h-0.1
					c-0.3-0.1-0.4-0.2-0.6-0.3L15,76c-0.8-0.4-1.2-1.1-1.2-1.7v2.3c0,0.6,0.4,1.2,1.2,1.7l76,44.2c0.2,0.1,0.4,0.2,0.6,0.3l0,0h0.1
					c0.1,0.1,0.3,0.1,0.4,0.1c0.1,0,0.1,0,0.2,0.1c0.1,0,0.1,0,0.1,0c0.1,0,0.1,0,0.1,0.1c0.1,0,0.3,0.1,0.4,0.1c0.1,0,0.1,0,0.1,0
					c0.1,0,0.1,0,0.1,0c0.1,0,0.1,0,0.2,0c0.1,0,0.3,0,0.4,0c0.1,0,0.1,0,0.1,0s0.1,0,0.1,0c0.1,0,0.1,0,0.2,0c0.1,0,0.3,0,0.4-0.1
					c0,0,0,0,0.1,0s0.1,0,0.1,0c0.1,0,0.3,0,0.4-0.1c0.1,0,0.1,0,0.1-0.1c0.1,0,0.3-0.1,0.4-0.1c0.1,0,0.1-0.1,0.2-0.1
					s0.1-0.1,0.2-0.1s0.1-0.1,0.2-0.1c0.2-0.1,0.4-0.2,0.6-0.3L208.4,58c0.1,0,0.1-0.1,0.1-0.1l0.1-0.1c0.1,0,0.1-0.1,0.1-0.1
					c0.1-0.1,0.1-0.1,0.1-0.1c0.1,0,0.1-0.1,0.1-0.1c0,0,0.1,0,0.1-0.1c0,0,0-0.1,0.1-0.1c0.1-0.1,0.1-0.1,0.1-0.2
					c0,0,0-0.1,0.1-0.1c0,0,0,0,0-0.1c0.1-0.1,0.1-0.1,0.1-0.1c0,0,0-0.1,0.1-0.1l0,0c0-0.1,0.1-0.1,0.1-0.1c0,0,0-0.1,0.1-0.1l0,0
					c0-0.1,0-0.1,0.1-0.1v-0.1l0,0c0-0.1,0-0.1,0-0.1C209.6,56.3,209.6,56.3,209.6,56.3z"/>
			</g>
			<path class="st8" d="M61.7,95.4l-4.6-2.6c-0.8-0.4-1.8-0.6-2.6-0.3c-1.1,0.4-1.2,1.3-0.4,1.8l5,2.8c0.7,0.4,1.8,0.4,2.5,0.1
				C62.6,96.7,62.6,96,61.7,95.4z"/>
			<g>
				<g class="st1">
					<g>
						<path class="st9" d="M113.2,44.2l0.2,0.6c0,0.1,0.1,0.1,0.3,0.2l0.9,0.1l-0.2,0.6c0,0.1,0,0.2,0.1,0.2l0.8,0.3l-0.4,0.3
							l-0.2,0.1v0.1c-0.1,0.1-0.1,0.1,0,0.2l0.1,0.1l0.4,0.4l-0.8,0.3h-0.1c-0.1,0.1-0.1,0.1-0.1,0.2v0.1l0.2,0.5h-0.1l-0.4,0.1
							l-0.5,0.1c-0.1,0-0.1,0-0.2,0.1c0,0-0.1,0-0.1,0.1l-0.1,0.1l-0.1,0.1l-0.1,0.2l-0.1,0.2L112,49c-0.1,0-0.3,0-0.3,0.1
							c0,0,0,0-0.1,0l-0.4,0.3l-0.2,0.1l-0.2-0.1l-0.6-0.3c-0.1-0.1-0.3-0.1-0.4,0l-0.8,0.3l-0.6-0.5c-0.1-0.1-0.3-0.1-0.4-0.1
							l-0.9,0.1l-0.2-0.6c0-0.1-0.1-0.1-0.3-0.2l-0.9-0.1l0.2-0.6c0-0.1,0-0.2-0.1-0.2l-0.8-0.3l0.6-0.5c0.1-0.1,0.1-0.2,0-0.3
							l-0.6-0.5l0.8-0.3h0.1c0.1-0.1,0.1-0.1,0.1-0.2l-0.2-0.6l0.9-0.1c0.1,0,0.1,0,0.2-0.1c0.1,0,0.1-0.1,0.1-0.1l0.2-0.6l0.9,0.1
							c0.1,0,0.3,0,0.3-0.1c0,0,0,0,0.1,0l0.6-0.5l0.8,0.3c0.1,0.1,0.3,0.1,0.4,0l0.8-0.3l0.6,0.5c0.1,0.1,0.3,0.1,0.4,0.1
							L113.2,44.2z M114,46.2c-0.1-0.4-0.5-0.8-1-1.1c-1.5-0.9-3.9-0.9-5.4,0c-1.5,0.9-1.5,2.3,0,3.1c0.7,0.4,1.6,0.6,2.4,0.6
							c0.1,0,0.3,0,0.4,0c0.1,0,0.3,0,0.4,0c0.4-0.1,0.9-0.1,1.3-0.3c0.1-0.1,0.3-0.1,0.3-0.1c0.1-0.1,0.2-0.1,0.3-0.1
							c0.1-0.1,0.1-0.1,0.2-0.1c0.3-0.1,0.4-0.3,0.6-0.4c0.1-0.1,0.2-0.2,0.3-0.3c0.1-0.1,0.1-0.1,0.1-0.2c0.1-0.1,0.1-0.3,0.2-0.4
							c0-0.1,0.1-0.3,0-0.4C114,46.4,114,46.3,114,46.2"/>
					</g>
					<g>
						<polygon class="st8" points="160.3,40.6 161.6,41.3 132.6,58.1 131.3,57.3 						"/>
					</g>
					<g>
						<polygon class="st8" points="162.9,42.1 164.1,42.8 135.1,59.6 133.8,58.8 						"/>
					</g>
					<g>
						<path class="st6" d="M92.6,59.9c-0.7,0.8,0,1.3,0.3,1.4h0.1l0.1-0.1c-0.3-0.2-0.6-0.6-0.3-1.1c0.1-0.3,0.4-0.5,0.8-0.8
							c1.7-0.9,5.3-1.3,5.5-1.3s0.3,0.1,0.3,0.1s0,0.1-0.1,0.1s-0.1,0.1-0.2,0.1s-3.6,0.3-5.1,1.1c-0.3,0.2-0.5,0.4-0.6,0.6
							C93,60.6,93.7,61,93.7,61c0.1,0.1,0.1,0.2,0,0.3l-1,0.6c-0.1,0.1-0.3,0.1-0.4,0c0,0-0.7-0.4-1.6-0.2c-0.4,0.1-0.7,0.2-1,0.4
							c-1.5,0.9-2,2.9-2,2.9c0,0.1-0.1,0.1-0.1,0.1c-0.1,0.1-0.1,0.1-0.3,0.1c-0.2,0-0.3-0.1-0.3-0.2c0-0.1,0.5-2.2,2.2-3.1
							c0.4-0.2,0.8-0.4,1.3-0.4c0.9-0.1,1.6,0.1,1.9,0.2l0.1-0.1h-0.1c-0.3-0.1-1.1-0.5-2.4-0.1c-0.3,0.1-0.7,0.3-0.9,0.4
							c-1.8,1.1-2.3,3-2.3,3c0,0.1-0.1,0.1-0.1,0.1c-0.1,0-0.1,0.1-0.2,0.1c-0.1,0-0.3-0.1-0.3-0.1L85,61.5l0,0
							c-0.1-0.6,0.3-1.2,1-1.6c0.9-0.6,2.3-0.7,2.8-0.8c0.1-0.3,0.4-1.1,1.3-1.6c0.7-0.4,1.6-0.6,2.7-0.6h0.1l5.8,0.7
							c0.1,0,0.3,0.1,0.3,0.2c0,0.1-0.1,0.1-0.1,0.1c-0.1,0-0.1,0.1-0.2,0.1s-3.5,0.3-5.2,1.3C93,59.4,92.8,59.6,92.6,59.9z
							 M91.3,60.9l-2.4-1.4c-0.4,0-1.7,0.2-2.5,0.6c-0.6,0.3-0.9,0.8-0.8,1.3l0.9,2.6c0.3-0.7,1-1.8,2.2-2.4
							c0.4-0.2,0.8-0.4,1.1-0.5C90.3,60.9,90.8,60.8,91.3,60.9 M89.3,59.2l2.4,1.4c-0.1-0.3,0-0.6,0.3-0.9c0.2-0.3,0.5-0.4,0.8-0.6
							c1.2-0.7,2.9-1.1,4.2-1.3l-4.4-0.5c-0.9,0-1.7,0.1-2.3,0.4C89.6,58.2,89.3,58.9,89.3,59.2"/>
					</g>
					<g>
						<path class="st10" d="M81.9,55.1c4.8-2.8,12.7-2.8,17.4,0c4.8,2.8,4.8,7.3-0.1,10.1c-4.8,2.8-12.7,2.8-17.4,0
							C77,62.4,77.1,57.9,81.9,55.1z M98.8,57.8c0-0.1-0.1-0.1-0.3-0.2l-5.8-0.7h-0.1c-1.1-0.1-2,0.1-2.7,0.6
							c-0.9,0.6-1.2,1.3-1.3,1.6c-0.6,0.1-1.9,0.2-2.8,0.8c-0.7,0.4-1,0.9-1,1.6l0,0l1.2,3.3c0,0.1,0.1,0.1,0.3,0.1
							c0.1,0,0.1,0,0.2-0.1c0.1,0,0.1-0.1,0.1-0.1c0,0,0.5-2,2.3-3c0.3-0.2,0.6-0.3,0.9-0.4c1.3-0.4,2.2,0,2.4,0.1h0.1l-0.1,0.1
							c-0.3-0.1-1.1-0.3-1.9-0.2c-0.5,0.1-0.9,0.3-1.3,0.4c-1.7,0.9-2.1,3.1-2.2,3.1c0,0.1,0.1,0.2,0.3,0.2c0.1,0,0.2,0,0.3-0.1
							c0.1,0,0.1-0.1,0.1-0.1c0,0,0.4-2.1,2-2.9c0.3-0.2,0.6-0.3,1-0.4c0.9-0.1,1.6,0.2,1.6,0.2c0.1,0.1,0.3,0.1,0.4,0l1-0.6
							c0.1-0.1,0.1-0.2,0-0.3c0,0-0.6-0.4-0.4-0.9c0.1-0.3,0.3-0.4,0.6-0.6c1.5-0.9,5.1-1.1,5.1-1.1c0.1,0,0.1,0,0.2-0.1
							s0.1-0.1,0.1-0.1c0-0.1-0.2-0.2-0.3-0.1c-0.2,0-3.8,0.3-5.5,1.3c-0.4,0.2-0.6,0.4-0.8,0.8c-0.3,0.5,0.1,0.9,0.3,1.1l-0.1,0.1
							h-0.1c-0.3-0.1-0.9-0.6-0.3-1.4c0.2-0.2,0.4-0.4,0.8-0.6c1.8-1.1,5.2-1.3,5.2-1.3c0.1,0,0.1,0,0.2-0.1
							C98.7,57.8,98.8,57.8,98.8,57.8"/>
					</g>
					<g>
						<polygon class="st8" points="122.1,56.8 123.4,57.6 95.9,73.4 94.7,72.7 						"/>
					</g>
					<g>
						<polygon class="st8" points="124.7,58.3 125.9,59 98.5,74.9 97.2,74.2 						"/>
					</g>
					<g>
						<polygon class="st8" points="127.2,59.7 128.5,60.5 101,76.4 99.7,75.6 						"/>
					</g>
					<g>
						<polygon class="st8" points="132.2,62.7 133.5,63.4 106,79.3 104.8,78.6 						"/>
					</g>
					<g>
						<path class="st11" d="M78.9,81.4c0.1,0.1,0.1,0.1,0.2,0.1c0.3,0.1,0.6,0.3,0.9,0.4c1.4,0.5,2.7,0.6,3.6,0.6
							c1.6-0.2,3.3-0.6,4.7-1c-0.3,4.1-3.5,6-3.7,6.1c-0.1,0-0.1,0.1-0.1,0.1c-2.7,1.6-7.8,1.9-10.2,2.1c1.3-1.1,1.9-2,2.3-2.6
							c0.1-0.2,0.1-0.3,0.2-0.4c0.1-0.8-0.4-1.4-1.1-1.9c-0.1-0.1-0.2-0.2-0.3-0.3c-0.2-0.1-0.3-0.3-0.5-0.3c0.7,0.4,1.4,0.9,2,1.8
							c0.4-0.1,0.8-0.3,1.1-0.4c1.8-1,1.7-2.9,1-4C78.9,81.5,78.9,81.4,78.9,81.4z"/>
					</g>
					<g>
						<path class="st8" d="M67.9,60.8l35.1,20.4l-3.3-1.1c-2.1-0.9-4.9-1.1-7.3-0.5l-4,1.1c0,0.3,0,0.6,0,0.8
							c-1.4,0.4-3.1,0.8-4.7,1c-0.8,0-2.2-0.1-3.6-0.6c3.1-2.8-1.5-5.9-2.8-6.7c-1.4-0.9-3.8-2.6-6.4-3.5l-1.4-0.9l1.1-1.7l2.6,1.5
							c-0.2,0.3-0.1,0.6,0.2,0.8l2.6,2l2.4-1.4c-0.2-0.1-3.4-1.5-3.4-1.6c-0.4-0.2-0.9-0.3-1.4-0.1l-2.8-1.6l1.4-2l-17.4,3.9
							l-6.8,10l6.7-1.5l1.7,1c1.4,1.9,4.2,3.5,6,4.5c2.9,1.7,6.3,2.1,6.5,2.1c0.1,0,2.9,0,6.7-1.8c0.6,0.5,1.2,1.2,1.1,1.9
							c-0.1,0.1-0.1,0.3-0.2,0.4c-0.3,0.6-0.9,1.5-2.3,2.6c-0.8,0.1-1.3,0.1-1.4,0.1c-0.3,0.3-1.4,1.8-2.4,3.3
							c-0.9,1.4-0.5,2.9,1.2,4.1l1.6,1.3l29.7-17.2L73.2,98.4L38.1,78L67.9,60.8z"/>
					</g>
					<g>
						<path class="st7" d="M35.9,76.7l97.4-56.2l39.9,23.2L75.8,99.9l-2.5-1.4L103,81.3L67.9,60.8L38.1,78L35.9,76.7z M81.9,55.1
							c-4.8,2.8-4.9,7.3-0.1,10.1c4.8,2.8,12.6,2.8,17.4,0c4.8-2.8,4.9-7.3,0.1-10.1C94.6,52.3,86.8,52.3,81.9,55.1 M142.4,40.3
							c4.8-2.8,4.8-7.3,0.1-10.1c-4.8-2.8-12.6-2.8-17.4,0c-4.8,2.8-4.9,7.3-0.1,10.1C129.8,43.2,137.6,43.2,142.4,40.3 M103.4,52.8
							c4.8,2.8,12.6,2.8,17.4,0c4.8-2.8,4.9-7.3,0.1-10.1c-4.8-2.8-12.6-2.8-17.4,0C98.6,45.5,98.6,50,103.4,52.8 M166.7,44.3
							l-1.3-0.8l-29.1,16.8l1.3,0.8L166.7,44.3 M156.6,38.5l-1.3-0.8l-29.1,16.8l1.3,0.8L156.6,38.5 M161.6,41.3l-1.3-0.8
							l-29.1,16.8l1.3,0.8L161.6,41.3 M159.1,39.9l-1.3-0.8l-29.1,16.8l1.3,0.8L159.1,39.9 M164.1,42.8l-1.3-0.8l-29.1,16.8l1.3,0.8
							L164.1,42.8 M133.5,63.4l-1.3-0.8l-27.4,15.9l1.3,0.8L133.5,63.4 M123.4,57.6l-1.3-0.8L94.6,72.7l1.3,0.8L123.4,57.6
							 M128.5,60.5l-1.3-0.8L99.7,75.6l1.3,0.8L128.5,60.5 M125.9,59l-1.3-0.8L97.2,74.2l1.3,0.8L125.9,59 M131,62l-1.3-0.8
							l-27.5,15.9l1.3,0.8L131,62"/>
					</g>
					<g>
						<polygon class="st12" points="125.8,35.1 127.3,34.6 127.3,36 125.8,35.6 						"/>
					</g>
					<g>
						<path class="st12" d="M125,30.2c4.8-2.8,12.7-2.8,17.4,0c4.8,2.8,4.8,7.3-0.1,10.1c-4.8,2.8-12.7,2.8-17.4,0
							C120.1,37.6,120.2,33.1,125,30.2z M141.8,34.2c0-0.1-0.2-0.3-0.4-0.3h-13.6c-0.1,0-0.1,0-0.1,0l-3.8,1.1c-0.1,0-0.1,0-0.1,0.1
							c-0.2,0.1-0.2,0.3,0.1,0.4l3.7,1.1c0.1,0,0.1,0,0.2,0h13.6c0.1,0,0.3,0,0.3-0.1c0.1-0.1,0.1-0.1,0.1-0.2L141.8,34.2"/>
					</g>
					<g>
						<polygon class="st12" points="128.2,35.6 128.2,35 141,35 141,35.6 						"/>
					</g>
					<g>
						<polygon class="st12" points="128.2,36.2 128.2,35.8 141,35.8 141,36.2 						"/>
					</g>
					<g>
						<path class="st6" d="M141.4,33.9c0.3,0,0.4,0.1,0.4,0.3v2.3c0,0.1-0.1,0.1-0.1,0.2c-0.1,0.1-0.2,0.1-0.3,0.1h-13.6
							c-0.1,0-0.1,0-0.1,0l-3.8-1.1c-0.3-0.1-0.3-0.3-0.1-0.4c0,0,0.1,0,0.1-0.1l3.8-1.1c0.1,0,0.1,0,0.2,0H141.4z M141,35.6V35
							h-12.7v0.6H141 M141,34.8v-0.4h-12.7v0.4H141 M141,36.2v-0.4h-12.7v0.4H141 M125.8,35.6l1.5,0.4v-1.4l-1.5,0.4V35.6"/>
					</g>
					<g>
						
							<rect x="134.4" y="28.2" transform="matrix(5.641038e-03 -1 1 5.641038e-03 99.2798 168.9981)" class="st12" width="0.4" height="12.7"/>
					</g>
					<g>
						<path class="st6" d="M114,44.5l1.1,0.1c0.1,0,0.2,0.1,0.3,0.1c0.1,0.1,0.1,0.1,0.1,0.1l-0.2,0.6l0.9,0.4
							c0.2,0.1,0.2,0.2,0.1,0.3l-0.6,0.5l5.5,1.8c0.1,0.1,0.2,0.1,0.2,0.2c0,0.1-0.1,0.1-0.1,0.1c-0.1,0-0.1,0.1-0.1,0.1l-2.4,0.4
							l0.6,1.4c0.1,0.1,0,0.1-0.1,0.2c-0.1,0.1-0.3,0.1-0.4,0.1l-2.1-0.7l1.2,1.2c0.1,0.1,0.1,0.2,0,0.3c-0.1,0.1-0.3,0.1-0.4,0.1
							l-2.3-0.4l-0.7,1.4c0,0.1-0.1,0.1-0.1,0.1c-0.1,0-0.1,0.1-0.2,0.1c-0.1,0-0.3,0-0.4-0.1l-2.6-2.6h-0.1l-0.9-0.4l-0.9,0.4
							c-0.1,0-0.2,0.1-0.3,0c-0.1,0-0.2-0.1-0.3-0.1l-0.6-0.5l-1.1,0.1c-0.1,0-0.2,0-0.3-0.1c-0.1,0-0.1-0.1-0.1-0.1l-0.2-0.6
							l-1.1-0.1c-0.1,0-0.2-0.1-0.3-0.1c-0.1-0.1-0.1-0.1-0.1-0.1l0.3-0.6l-0.9-0.4c-0.1,0-0.1-0.1-0.1-0.1s0-0.1,0.1-0.1l0.6-0.5
							l-0.6-0.5c-0.1-0.1-0.1-0.1-0.1-0.1c0-0.1,0.1-0.1,0.1-0.1h0.1l0.9-0.4l-0.2-0.6c0-0.1,0-0.1,0.1-0.1c0,0,0,0,0.1-0.1
							c0.1,0,0.1-0.1,0.2-0.1l1.1-0.1L107,44c0-0.1,0.1-0.1,0.1-0.1c0.1-0.1,0.2-0.1,0.3-0.1l1.1,0.1l0.6-0.5c0,0,0,0,0.1-0.1
							c0.1,0,0.1-0.1,0.2-0.1s0.2,0,0.3,0l0.9,0.4l0.9-0.4c0.1,0,0.2-0.1,0.3,0c0.1,0,0.2,0.1,0.3,0.1l0.6,0.5l1.1-0.1
							c0.1,0,0.2,0,0.3,0c0.1,0,0.1,0.1,0.1,0.1L114,44.5z M113.7,44.9c-0.1,0-0.3-0.1-0.3-0.2l-0.2-0.6l-0.9,0.1
							c-0.1,0-0.3,0-0.4-0.1l-0.6-0.5l-0.8,0.3c-0.1,0.1-0.3,0.1-0.4,0l-0.8-0.3l-0.6,0.5c0,0,0,0-0.1,0c-0.1,0.1-0.2,0.1-0.3,0.1
							l-0.9-0.1l-0.2,0.6c0,0.1-0.1,0.1-0.1,0.1c-0.1,0-0.1,0.1-0.2,0.1L106,45l0.2,0.6c0,0.1,0,0.1-0.1,0.2H106l-0.8,0.3l0.6,0.5
							c0.1,0.1,0.1,0.2,0,0.3l-0.6,0.5l0.8,0.3c0.1,0.1,0.2,0.1,0.1,0.2l-0.2,0.6l0.9,0.1c0.1,0,0.3,0.1,0.3,0.2l0.2,0.6l0.9-0.1
							c0.1,0,0.3,0,0.4,0.1l0.6,0.5l0.8-0.3c0.1-0.1,0.3-0.1,0.4,0l0.6,0.3l0.2,0.1l0.2-0.1l0.4-0.3c0,0,0,0,0.1,0
							c0.1-0.1,0.2-0.1,0.3-0.1l0.9,0.1l0.1-0.2l0.1-0.2l0.1-0.1c0,0,0-0.1,0.1-0.1c0,0,0.1,0,0.1-0.1c0.1,0,0.1-0.1,0.2-0.1
							l0.5-0.1l0.4-0.1h0.1l-0.2-0.5v-0.1c0-0.1,0-0.1,0.1-0.2h0.1l0.8-0.3l-0.4-0.4l-0.1-0.1c-0.1-0.1-0.1-0.1,0-0.2v-0.1l0.2-0.1
							l0.4-0.3l-0.8-0.3c-0.1-0.1-0.2-0.1-0.1-0.2l0.2-0.6L113.7,44.9 M120,48.6l-3.8-1.3c0,0.1,0,0.1-0.1,0.2H116l-0.9,0.4l0.2,0.6
							c0,0.1,0,0.1-0.1,0.1h-0.1l0,0c-0.1,0-0.1,0.1-0.1,0.1h-0.2l-0.4,0.1l-0.4,0.1l0.6,0.2l0.6,0.2l0.6,0.2l2.4,0.8l-0.5-1.1
							c0-0.1,0-0.1,0.1-0.1l0.1-0.1c0.1,0,0.1-0.1,0.1-0.1L120,48.6 M116.8,51.1l-1.4-1.4l-1.6-0.5l-0.1,0.3c0,0.1-0.1,0.1-0.1,0.1
							h-0.1c-0.1,0-0.2,0.1-0.3,0l-1.1-0.1l-0.4,0.4l2.1,2.2l0.5-1.1c0-0.1,0.1-0.1,0.1-0.1s0.1,0,0.1-0.1c0.1,0,0.2-0.1,0.3,0
							L116.8,51.1"/>
					</g>
					<g>
						<path class="st9" d="M108,45.3c1.3-0.8,3.4-0.8,4.7,0c0.6,0.4,0.9,0.8,0.9,1.3c0,0.1,0,0.3-0.1,0.4c-0.1,0.1-0.1,0.3-0.2,0.4
							c-0.1,0.1-0.2,0.3-0.3,0.3c-0.1,0.1-0.3,0.2-0.4,0.3c-0.1,0-0.1,0.1-0.2,0.1c-0.1,0.1-0.3,0.1-0.4,0.2c-0.1,0-0.1,0.1-0.2,0.1
							h-0.1c-0.4,0.1-0.9,0.2-1.3,0.2c-0.2,0-0.4,0-0.6,0c-0.8-0.1-1.4-0.3-2-0.6C106.6,47.2,106.6,46,108,45.3z"/>
					</g>
					<g>
						<path class="st9" d="M103.4,42.7c4.8-2.8,12.7-2.8,17.4,0c4.8,2.8,4.8,7.3-0.1,10.1c-4.8,2.8-12.7,2.8-17.4,0
							C98.6,50,98.6,45.5,103.4,42.7z M115.1,44.6l-1.1-0.1l-0.2-0.6c0-0.1-0.1-0.1-0.1-0.1c-0.1,0-0.2-0.1-0.3,0l-1.1,0.1l-0.6-0.5
							c-0.1-0.1-0.1-0.1-0.3-0.1c-0.1,0-0.2,0-0.3,0l-0.9,0.4l-0.9-0.4c-0.1,0-0.2-0.1-0.3,0c-0.1,0-0.1,0-0.2,0.1
							c0,0-0.1,0-0.1,0.1l-0.6,0.5l-1.1-0.1c-0.1,0-0.3,0-0.3,0.1c-0.1,0-0.1,0.1-0.1,0.1l-0.3,0.6l-1.1,0.1c-0.1,0-0.1,0-0.2,0.1
							c0,0-0.1,0-0.1,0.1c-0.1,0.1-0.1,0.1-0.1,0.1l0.2,0.6l-0.9,0.4h-0.1c-0.1,0-0.1,0.1-0.1,0.1c0,0.1,0,0.1,0.1,0.1l0.6,0.5
							l-0.6,0.5c-0.1,0.1-0.1,0.1-0.1,0.1c0,0.1,0.1,0.1,0.1,0.1l0.9,0.4l-0.3,0.6c0,0.1,0,0.1,0.1,0.1c0.1,0.1,0.1,0.1,0.3,0.1
							l1.1,0.1l0.2,0.6c0,0.1,0.1,0.1,0.1,0.1c0.1,0,0.2,0.1,0.3,0.1l1.1-0.1l0.6,0.5c0.1,0.1,0.1,0.1,0.3,0.1c0.1,0,0.2,0,0.3,0
							l0.9-0.4l0.9,0.4h0.1l2.6,2.6c0.1,0.1,0.2,0.1,0.4,0.1c0.1,0,0.1,0,0.2-0.1c0.1,0,0.1-0.1,0.1-0.1l0.7-1.4l2.4,0.3
							c0.1,0,0.3,0,0.3-0.1c0.1-0.1,0.1-0.2,0.1-0.3l-1.2-1.2l2.1,0.7c0.1,0.1,0.3,0.1,0.4,0c0.1-0.1,0.2-0.1,0.1-0.2l-0.6-1.4
							l2.4-0.4c0.1,0,0.1,0,0.1-0.1c0.1,0,0.1-0.1,0.1-0.1c0-0.1-0.1-0.2-0.2-0.2l-5.5-1.8l0.6-0.5c0.1-0.1,0.1-0.3-0.1-0.3
							l-0.9-0.4l0.2-0.6C115.2,44.7,115.2,44.7,115.1,44.6C115.2,44.7,115.2,44.6,115.1,44.6"/>
					</g>
					<g>
						<path class="st6" d="M107.6,45.1c1.5-0.9,3.9-0.9,5.4,0c0.6,0.3,0.9,0.7,1,1.1c0.1,0.1,0.1,0.2,0.1,0.3c0,0.1,0,0.3,0,0.4
							c0,0.1-0.1,0.3-0.2,0.4c-0.1,0.1-0.1,0.1-0.1,0.2c-0.1,0.1-0.1,0.2-0.3,0.3c-0.1,0.1-0.3,0.3-0.6,0.4
							c-0.1,0.1-0.1,0.1-0.2,0.1c-0.1,0.1-0.2,0.1-0.3,0.1c-0.1,0.1-0.3,0.1-0.3,0.1c-0.4,0.1-0.8,0.2-1.3,0.3c-0.1,0-0.3,0-0.4,0
							s-0.3,0-0.4,0c-0.9-0.1-1.8-0.3-2.4-0.6C106.1,47.4,106.1,45.9,107.6,45.1z M113.6,46.6c-0.1-0.4-0.4-0.9-0.9-1.3
							c-1.3-0.8-3.4-0.8-4.7,0c-1.3,0.8-1.3,1.9,0,2.7c0.6,0.3,1.3,0.5,2,0.6c0.2,0,0.4,0,0.6,0c0.4,0,0.9-0.1,1.3-0.2h0.1
							c0.1,0,0.1-0.1,0.2-0.1c0.1-0.1,0.3-0.1,0.4-0.2c0.1,0,0.1-0.1,0.2-0.1c0.2-0.1,0.3-0.2,0.4-0.3c0.1-0.1,0.3-0.2,0.3-0.3
							c0.1-0.1,0.1-0.3,0.2-0.4C113.6,46.9,113.6,46.7,113.6,46.6"/>
					</g>
					<g>
						<path class="st9" d="M116.1,47.4c0.1-0.1,0.1-0.1,0.1-0.2l3.8,1.3l-1.9,0.3c-0.1,0-0.1,0-0.1,0.1c0,0-0.1,0-0.1,0.1
							c-0.1,0.1-0.1,0.1-0.1,0.1l0.5,1.1l-2.4-0.8l-0.6-0.2l-0.6-0.2l-0.6-0.2l0.4-0.1l0.4-0.1h0.2c0.1,0,0.1,0,0.1-0.1l0,0h0.1
							c0.1-0.1,0.1-0.1,0.1-0.1l-0.2-0.6L116.1,47.4C116.1,47.4,116.1,47.4,116.1,47.4z"/>
					</g>
					<g>
						<path class="st9" d="M113.8,49.4l0.1-0.3l1.6,0.5l1.4,1.4l-1.9-0.3c-0.1,0-0.2,0-0.3,0c0,0-0.1,0-0.1,0.1
							c-0.1,0-0.1,0.1-0.1,0.1l-0.5,1.1l-2.1-2.2l0.4-0.4l1.1,0.1c0.1,0,0.2,0,0.3,0h0.1C113.7,49.5,113.7,49.4,113.8,49.4z"/>
					</g>
					<g>
						<polygon class="st8" points="155.3,37.7 156.6,38.5 127.5,55.2 126.2,54.5 						"/>
					</g>
					<g>
						<polygon class="st8" points="157.8,39.1 159.1,39.9 130,56.7 128.8,55.9 						"/>
					</g>
					<g>
						<path class="st10" d="M90.4,57.7c0.6-0.3,1.3-0.5,2.3-0.4l4.4,0.5c-1.3,0.2-3,0.6-4.2,1.3c-0.4,0.2-0.6,0.4-0.8,0.6
							c-0.3,0.4-0.4,0.6-0.3,0.9l-2.4-1.4C89.3,58.9,89.6,58.2,90.4,57.7z"/>
					</g>
					<g>
						<polygon class="st8" points="165.4,43.5 166.7,44.3 137.6,61 136.3,60.3 						"/>
					</g>
					<g>
						<path class="st10" d="M85.5,61.4c-0.1-0.6,0.3-1,0.8-1.3c0.9-0.5,2.1-0.6,2.5-0.6l2.4,1.4c-0.4,0-1,0-1.6,0.2
							c-0.4,0.1-0.8,0.3-1.1,0.5c-1.2,0.7-1.8,1.7-2.2,2.4L85.5,61.4z"/>
					</g>
					<g>
						<path class="st9" d="M68.7,67.4l2.1,1.2l2.8,1.6c-0.1,0-0.2,0.1-0.3,0.1c-0.1,0.1-0.2,0.1-0.3,0.2l-2.6-1.5l-2.3-1.4
							L68.7,67.4z"/>
					</g>
					<g>
						<path class="st9" d="M73.3,70.3c0.1-0.1,0.2-0.1,0.3-0.1c0.4-0.1,1-0.1,1.4,0.1c0.1,0.1,3.3,1.5,3.4,1.6L76,73.3l-2.6-2
							c-0.4-0.2-0.4-0.5-0.2-0.8C73.2,70.5,73.3,70.4,73.3,70.3z"/>
					</g>
					<g>
						<polygon class="st10" points="123,14.4 133.2,20.4 35.9,76.7 25.6,70.6 						"/>
					</g>
					<g>
						<path class="st13" d="M64.6,74.5c0.6-0.3,1.1-0.6,1.6-0.9c-0.1,0.1-0.1,0.3-0.1,0.4c-0.6,1.6-2,2.9-3.3,3.8
							C63.4,76.9,64,75.7,64.6,74.5z"/>
					</g>
					<g>
						<polygon class="st8" points="129.7,61.2 131,62 103.5,77.9 102.3,77.1 						"/>
					</g>
					<g>
						<path class="st13" d="M63,75.4C63,75.4,63,75.4,63,75.4c-0.7,1.3-1.6,2.4-2.5,3.6l0,0c0-0.1,0.3-1.1,0.8-2.5
							C61.8,76.1,62.3,75.7,63,75.4z"/>
					</g>
					<g>
						<path class="st13" d="M69.7,72.1c3.6,1.3,6.6,2.9,9,5c0.8,0.6,1.1,2.7,0.4,4.4c-0.1-0.1-0.1-0.1-0.2-0.1c0.3-1.3,0-2.3,0-2.4
							c-0.9-3-9.6-5.9-10-6.1c0,0.1-0.1,1.8-1.8,4.5c-0.6,0.9-3.3,3.5-4,4.1c-0.1-1.3,0.8-2.1,0.8-2.2c2-1.8,2.8-3.1,3.5-5.2
							c0.1-0.4,0.2-0.8,0.3-1.1C68.4,72.6,69.2,72.3,69.7,72.1z"/>
					</g>
					<g>
						<path class="st13" d="M66.5,85.3c1.4,0.8,4.9,0.9,8.8-0.8c0.1,0.1,0.2,0.2,0.3,0.3c-3.8,1.8-6.6,1.8-6.7,1.8
							c-0.2,0-3.6-0.4-6.5-2.1c-1.8-1-4.6-2.5-5.9-4.5c0.3-0.3,1.4-1.5,4.8-3.6c-0.4,1.4-0.8,2.5-0.8,2.5c1-1.1,1.9-2.3,2.5-3.5
							c0,0,0-0.1,0.1-0.1c0.6-0.3,1.1-0.6,1.6-0.9c-0.5,1.2-1.1,2.4-1.8,3.3c1.3-0.8,2.8-2.1,3.3-3.8c0.1-0.1,0.1-0.3,0.1-0.4
							c0.4-0.3,0.9-0.4,1.3-0.6c-0.1,0.4-0.1,0.8-0.3,1.1c-0.7,2.1-1.4,3.4-3.5,5.2c0,0-0.8,0.9-0.8,2.2c-0.1,0.1-0.2,0.1-0.2,0.1
							s0.1,0.1,0.2,0.1C63.3,82.9,64.2,84.1,66.5,85.3z"/>
					</g>
					<g>
						<path class="st14" d="M58.5,73c6-3.5,8.7-3.5,8.8-3.5l2.1,1.3l1.6,0.9c0,0-0.1,0-0.1,0c-0.2,0.1-0.6,0.2-1.1,0.4
							c-0.6,0.2-1.3,0.5-2.3,0.9c-0.4,0.2-0.8,0.4-1.3,0.6c-0.5,0.3-1.1,0.6-1.6,0.9c-0.5,0.3-1,0.6-1.6,0.9
							c-0.7,0.4-1.3,0.8-1.8,1.1c-3.3,2.1-4.5,3.3-4.8,3.6c-0.1,0.1-0.1,0.1-0.1,0.1l-1.7-1l-1.9-1.1C52.7,77.9,53,76.2,58.5,73z"/>
					</g>
					<g>
						<path class="st9" d="M54.8,70.5l17.4-3.9l-1.4,2l-2.1-1.2l-0.5,0.3l2.3,1.4l-1.1,1.7l-2.1-1.3c-0.1,0-2.8,0-8.8,3.5
							c-5.5,3.2-5.8,4.8-5.8,4.9l1.9,1.1L48,80.6L54.8,70.5z"/>
					</g>
					<g>
						<path class="st13" d="M77.3,75.2c1.3,0.8,5.9,4,2.8,6.7c-0.3-0.1-0.6-0.3-0.9-0.4c0.8-1.7,0.4-3.8-0.4-4.4
							c-2.4-2.1-5.5-3.7-9-5c0.6-0.2,1-0.3,1.1-0.4C73.5,72.6,76,74.3,77.3,75.2z"/>
					</g>
					<g>
						<path class="st11" d="M68.9,72.9C69.3,73,78,76,78.9,79c0,0.1,0.3,1.2,0,2.4c0,0.1-0.1,0.1-0.1,0.2c-0.2,0.6-0.6,1.3-1.3,1.8
							l-0.4,0.2c-0.7,0.3-1.5,0.6-2.4,0.7c-2.4,0.4-5,0.1-5.1,0.1c-3.3-0.4-5.8-2-6.6-2.5c-0.1-0.1-0.2-0.1-0.2-0.1s0.1-0.1,0.2-0.1
							c0.7-0.6,3.5-3.2,4-4.1C68.7,74.7,68.9,73,68.9,72.9z"/>
					</g>
					<g>
						<path class="st15" d="M78.8,81.6c0.7,1.1,0.8,3-1,4c-0.3,0.2-0.6,0.3-1.1,0.4c-0.5-0.8-1.3-1.4-1.9-1.8
							c0.9-0.1,1.7-0.4,2.4-0.7l0.4-0.2C78.3,82.8,78.7,82.2,78.8,81.6z"/>
					</g>
					<g>
						<path class="st13" d="M69.7,84.3c0.1,0,2.7,0.3,5.1-0.1c0.1,0.1,0.3,0.2,0.5,0.3c-3.9,1.8-7.3,1.5-8.8,0.8
							c-2.4-1.2-3.2-2.4-3.4-3.5C63.9,82.3,66.5,83.9,69.7,84.3z"/>
					</g>
					<g>
						<path class="st10" d="M99.6,80.1l3.3,1.1L73.2,98.4l-1.6-1.3c-1.7-1.1-2.1-2.7-1.2-4.1s2.1-3,2.4-3.3c0,0,0.5,0,1.4-0.1
							c2.4-0.1,7.6-0.5,10.2-2.1c0,0,0.1,0,0.1-0.1c0.2-0.1,3.4-2,3.7-6.1c0-0.3,0-0.5,0-0.8l4-1.1C94.8,79.1,97.5,79.2,99.6,80.1z"
							/>
					</g>
					<g>
						<polygon class="st8" points="173.2,43.6 197.7,57.7 100.2,114 75.8,99.8 						"/>
					</g>
				</g>
			</g>
		</g>
		<g>
			<path class="st16" d="M229.2,83.2c0-0.1,0-0.1,0-0.1c0-0.1-0.1-0.3-0.1-0.4v-0.1c-0.4-1.6-1.4-1.9-3.1-1.9l-47.6-2.5
				c-1.1-0.1-2.1,0.3-2.8,1l-10.1-0.5l0.1-2.7c-0.4-4.1-3.2-8.1-8.1-11.3c-5.5-3.6-13-5.8-21.1-6.3s-15.7,1-21.6,4
				c-5.9,3-9.3,7.2-9.6,11.9c-0.1,0.6,0,1.2,0.1,1.8c-0.1-0.6-0.1-1.2-0.1-1.8l-0.4,7.6c-0.2,3.7-0.5,14,26.2,18.9l0.1,2.1
				c6.8,0,18.7-2.9,24.6-5.9c5.3-2.7,8.5-6.3,9.3-10.4l0.1-2.6l10.2,0.6c0.1,0.1,0.1,0.1,0.2,0.2l0,0c0.1,0.1,0.3,0.3,0.5,0.4
				c0,0,0.1,0,0.1,0.1c0.2,0.1,0.3,0.2,0.5,0.3c0,0,0.1,0,0.1,0.1c0.2,0.1,0.4,0.1,0.6,0.2h0.1c0.2,0.1,0.4,0.1,0.6,0.1l44.9,1.4
				l2.4,0.1c2.1,0.1,3.9-1.5,4-3.6l0,0C229.2,83.5,229.2,83.4,229.2,83.2z"/>
			<g>
				
					<rect x="169.1" y="72.5" transform="matrix(5.245881e-02 -0.9986 0.9986 5.245881e-02 83.3452 243.3712)" class="st17" width="1.7" height="10.6"/>
				<g class="st1">
					<g>
						<path class="st12" d="M161.2,74.9l-0.4,8c0.3-4.1-2.3-8.1-7.1-11.2c-4.8-3.1-11.4-5.1-18.4-5.5c-7.1-0.4-13.8,0.9-18.9,3.5
							c-5.1,2.6-8.2,6.3-8.4,10.4l0.4-8c0.3-4.1,3.2-7.8,8.4-10.4c5.1-2.6,11.9-3.9,18.9-3.5s13.6,2.3,18.4,5.5
							C158.9,66.8,161.4,70.8,161.2,74.9z"/>
					</g>
					<g>
						<path class="st18" d="M175,81.4c0-0.5,0.1-0.9,0.1-1.4l0.1-2.8l0,0C175.2,78.6,175.1,80,175,81.4z"/>
					</g>
					<g>
						<polygon class="st12" points="175.2,78.3 175,82.6 164.4,82 164.7,77.7 						"/>
					</g>
					<g>
						<path class="st12" d="M164.8,77l-0.4,7.6c-0.9,4.1-4.1,7.7-9.3,10.4c-5.9,3-13.6,4.5-21.7,4c-16.7-0.9-29.8-9.5-29.2-19.1
							l0.4-7.6c-0.6,9.7,12.5,18.3,29.2,19.1c8.1,0.4,15.7-1,21.7-4C160.7,84.8,163.9,81.1,164.8,77z"/>
					</g>
				</g>
				<g>
					<path class="st17" d="M156.8,62.6c4.9,3.2,7.7,7.2,8.1,11.3l-0.2,3.1c-0.9,4.1-4.1,7.7-9.3,10.4c-5.9,3-13.6,4.5-21.7,4
						c-16.7-0.9-29.8-9.5-29.2-19.1c0.3-4.7,3.7-8.9,9.6-11.9s13.6-4.5,21.6-4C143.9,56.8,151.3,59,156.8,62.6z M161,75.3
						c0.3-4.1-2.3-8-7-11.1c-4.8-3.1-11.3-5-18.3-5.4c-7-0.4-13.7,0.9-18.8,3.5c-5.1,2.6-8.1,6.3-8.3,10.4
						c-0.3,4.2,2.4,8.2,7.1,11.1c4.6,3,11,5,18.3,5.4c7,0.4,13.7-0.9,18.8-3.5C157.8,83,160.7,79.3,161,75.3"/>
				</g>
			</g>
			<g class="st19">
				<path class="st20" d="M116.6,66.1c5.1-2.2,11.7-3.2,18.8-2.8c7,0.4,13.5,2.1,18.3,4.8c4.8,2.7,8.2,5.9,7.2,9.2
					c-0.6,1.9-3.8,6.7-8.8,9c-5,2.2-11.2,3.3-18.2,2.9c-8.1-0.4-13.5-2.4-18.1-5c-4.4-2.6-7.2-6.9-7-9.7
					C108.9,71,111.5,68.3,116.6,66.1z"/>
			</g>
			<g class="st21">
				<path class="st6" d="M115.5,82.6c9.6-9.3,23.8-12.9,36.7-14.5c-4.4-2.1-10-3.5-16-3.8c-6.7-0.4-13,0.6-17.8,2.7
					c-4.8,2.1-7.3,4.6-7.5,7.9C110.8,77.1,112.6,80.2,115.5,82.6z"/>
			</g>
			<path class="st13" d="M225.3,78.7l-47.6-2.5c-2.1-0.1-3.9,1.5-4,3.6l0,0c-0.1,2.1,1.5,3.9,3.6,4l47.6,2.5c2.1,0.1,3.9-1.5,4-3.6
				l0,0C229,80.6,227.4,78.7,225.3,78.7z"/>
			<path class="st22" d="M220.5,82.9c-6.1,0.8-12.2,0.4-18.3-0.1c-5.3-0.4-10.6-0.5-15.9-0.6c-3.9-0.1-7.9-0.3-11.5-1.8
				c-0.4,0-0.8-0.1-1.1-0.1c0.2,1.8,1.7,3.3,3.6,3.3l47.6,2.5c2.1,0.1,3.9-1.5,4-3.6c0.1-0.7-0.1-1.4-0.4-1.9
				C226,81.9,223.2,82.6,220.5,82.9z"/>
		</g>
		<polygon class="st23" points="123,14.4 197.8,57.8 100.2,114 		"/>
	</g>
	<g>
		<g>
			
				<linearGradient id="SVGID_1_" gradientUnits="userSpaceOnUse" x1="761.2185" y1="60.8255" x2="797.1168" y2="103.4548" gradientTransform="matrix(1 0 0 -1 0 136)">
				<stop  offset="0" style="stop-color:#B3B2B2"/>
				<stop  offset="0.8771" style="stop-color:#FFFFFF"/>
			</linearGradient>
			<polygon class="st24" points="789.7,107.6 862.4,66.1 768.9,5.4 686.9,52.4 			"/>
			<g>
				<path class="st16" d="M816.5,90.2c0-1.8-1.1-3.6-2.1-4.3c-0.1-0.1-0.4-0.3-0.5-0.4l-86.4-50.1c-4.1-2.4-9.2-2.4-13.3,0l-36,21.1
					c-1.5,0.8-2.9,1.8-2.9,5.2c0,1.9,1.1,3.6,2.2,4.3c0.1,0.1,0.3,0.2,0.5,0.4l86.7,49.7c4.1,2.3,9.1,2.3,13.2,0L814,95.2
					c0.1-0.1,0.2-0.1,0.3-0.2C815.4,94.3,816.5,93.1,816.5,90.2z"/>
				<g>
					<path class="st7" d="M679.4,60c0,2.4-0.4,4.9-1.5,4.9c-1.1,0-3-2.3-3-4.7c0-3.4,1.5-4.4,2.9-5.2
						C678.9,54.5,679.4,57.6,679.4,60z"/>
					<path class="st7" d="M811.7,89c0-2.4,0.4-4.9,1.5-4.9s3,2.3,3,4.7c0,3.4-1.5,4.4-2.9,5.2C812.3,94.5,811.7,91.4,811.7,89z"/>
					<path class="st7" d="M677.6,58.1l36.7-21.4c3.1-1.8,9.1-2.4,13.3,0l86,50.3c2.6,1.5,2.6,5.2,0,6.7l-36.1,20.9
						c-4.1,2.3-9.1,2.3-13.2,0l-86.7-49.7C675,63.4,675,59.7,677.6,58.1z"/>
					<path class="st13" d="M677.6,55.2L713.8,34c4.1-2.4,9.2-2.4,13.3,0l86.4,50.1c2.6,1.5,2.6,5.2,0,6.7l-36.1,20.8
						c-4.1,2.3-9.1,2.3-13.2,0l-86.7-49.7C675,60.5,675,56.7,677.6,55.2z"/>
				</g>
			</g>
			<g>
				<path class="st9" d="M680,61l45.7-26.4l85.4,50L765.4,111L680,61z"/>
				<path class="st23" d="M746.9,100.1l45.7-26.4l18.7,10.9L765.5,111L746.9,100.1z"/>
				<g>
					<g>
						<path class="st7" d="M713.6,53.3c8.7-5,22.7-5,31.3,0c8.6,5,8.6,13.1-0.1,18.1c-8.7,5-22.7,5-31.3,0
							C704.9,66.5,704.9,58.3,713.6,53.3z"/>
					</g>
					<g>
						<g>
							<path class="st9" d="M720.5,65.9L720.5,65.9l11.3-2.8c0.1,0,0.1-0.1,0.1-0.1c0.1,0,0.1-0.1,0.1-0.1l4.7-6.4l0.1-0.1l5.2,3.1
								c0.1,0,0.1,0.1,0.2,0.1c1.6,0.9-0.8,3.8-5.3,6.4c-4.5,2.6-9.5,4-11.1,3.1L720.5,65.9z"/>
						</g>
						<g>
							<g>
								<path class="st13" d="M721.6,57c0.1,0,0.1-0.1,0.1-0.1l16.8-4.2c0.4-0.1,0.9,0.1,0.7,0.4l-2.4,3.3l-0.1,0.1l-4.7,6.4
									c0,0.1-0.1,0.1-0.1,0.1c-0.1,0-0.1,0.1-0.1,0.1l-11.2,2.8h-0.1l-1.9,0.4l3.5-5.6l-0.9-0.2l-3.8,6l-2.4,0.7
									c-0.4,0.1-0.9-0.1-0.7-0.4l7.2-9.8C721.5,57,721.6,57,721.6,57z"/>
							</g>
							<g>
								<path class="st13" d="M721.2,60.5l0.9,0.2l-3.5,5.6l-0.1,0.1l5.6,3.3c-0.1,0-0.4,0.1-0.4,0.1c-0.1,0.1-0.2,0.1-0.3,0.2
									l-6-3.5h-0.1L721.2,60.5z"/>
							</g>
							<g>
								<path class="st13" d="M723.8,69.9c0.1-0.1,0.3-0.1,0.4-0.1c0.4-0.1,0.9,0,1.3,0.1c0.3,0.1,0.4,0.4,0.4,0.5l-0.7-0.4l-1,0.6
									l0.6,0.4c-0.4,0-0.7-0.1-1-0.2c-0.4-0.2-0.4-0.5-0.3-0.8C723.5,70,723.6,69.9,723.8,69.9z"/>
							</g>
							<g>
								<polygon class="st13" points="725.1,70.1 725.9,70.4 729,71.9 727.3,72.9 724.7,71.1 724.1,70.7 								"/>
							</g>
						</g>
					</g>
				</g>
			</g>
			<path class="st23" d="M770.8,91.1l8.4-4.8c0.5-0.3,1.2-0.3,1.7,0l8.4,4.8c0.5,0.3,0.5,1,0,1.4l-8.5,5c-0.6,0.3-1.2,0.3-1.7,0
				l-8.2-5C770.3,92.2,770.3,91.4,770.8,91.1z"/>
			<path class="st23" d="M756.3,99.4l8.4-4.8c0.5-0.3,1.2-0.3,1.7,0l8.4,4.8c0.5,0.3,0.5,1,0,1.4l-8.5,5c-0.6,0.3-1.2,0.3-1.7,0
				l-8.2-5C755.7,100.5,755.7,99.7,756.3,99.4z"/>
			<path class="st23" d="M785.3,82.9l8.4-4.8c0.5-0.3,1.2-0.3,1.7,0l8.4,4.8c0.5,0.3,0.5,1,0,1.4l-8.5,5c-0.6,0.3-1.2,0.3-1.7,0
				l-8.2-5C784.7,83.9,784.7,83.2,785.3,82.9z"/>
			<g>
				<path class="st12" d="M767.4,66.6c0.4-0.2,1.1-0.2,1.5,0l5.4,3.1c0.4,0.2,0.4,0.7,0,0.9l-31,17.9c-0.4,0.2-1.1,0.2-1.5,0
					l-5.3-3.1c-0.4-0.2-0.4-0.7,0-0.9L767.4,66.6z"/>
			</g>
			<polygon class="st23" points="725.7,34.6 811.1,84.6 765.5,111 			"/>
		</g>
		<path class="st16" d="M858.4,81.2l-43,25.4l0,0l-1.2,0.7c-1.3,0.8-1.7,2.4-0.9,3.6l0.1,0.1l0,0l0,0c0.4,0.6,1.1,0.9,1.7,1.1h0.1
			c0.1,0,0.3,0.1,0.4,0.1c0.1,0,0.1,0,0.1,0c0.1,0,0.2,0,0.4,0c0.1,0,0.2-0.1,0.3-0.1c0.1,0,0.1,0,0.2-0.1c0.1-0.1,0.4-0.1,0.5-0.2
			l1.2-0.7l0,0l0,0l0,0l0.7-0.4l0.6-0.3l0,0l0,0l0,0l0,0l6.4-3.8l0,0c0,0,0,0,0.1-0.1l35.4-20.9l0,0l0,0l0,0l0,0l0,0l0,0l0,0l0,0
			l4.7-4.7l2.8-2.8L858.4,81.2z M861.6,85.5L861.6,85.5L861.6,85.5L861.6,85.5L861.6,85.5z M861.4,85.7L861.4,85.7
			C861.4,85.7,861.4,85.7,861.4,85.7C861.5,85.7,861.4,85.7,861.4,85.7L861.4,85.7z"/>
		<g>
			<g>
				<path class="st9" d="M814.4,105l2.9,4.9l43.6-26.2c0,0,1.1-1.8,0.2-3.4c-1.2-2-3.1-1.5-3.1-1.5L814.4,105z"/>
				<polygon class="st23" points="815.2,106.3 816.5,108.5 861.9,81.2 860.5,79 				"/>
				<path class="st6" d="M817.3,104.3l2,3.4c0.2,0.4,0.1,0.9-0.3,1.2l-3,1.7c-1.4,0.8-3.1,0.4-3.9-0.9l0,0c-0.8-1.4-0.4-3.1,0.9-3.9
					l3-1.7C816.5,103.7,817,103.8,817.3,104.3z"/>
				<path class="st25" d="M868.5,75.8l-7.6,7.9c0,0,1-1.6-0.2-3.4c-1.2-1.7-2.7-1.5-2.7-1.5L868.5,75.8z"/>
				<path class="st12" d="M815.6,104.3c0,0,1.7-0.1,2.8,1.7c1.1,1.7,0.1,3.2,0.1,3.2l6.5-3.9c0,0,1.1-1.1-0.1-3.1
					c-0.9-1.7-2.9-1.7-2.9-1.7L815.6,104.3z"/>
				<g>
					<path class="st26" d="M868.5,75.8l-2.8,2.9c0,0,0.4-0.7,0-1.2c-0.4-0.6-1.1-0.6-1.1-0.6L868.5,75.8z"/>
				</g>
			</g>
			<path class="st27" d="M866.9,77.4l-1.2,1.2l-4.8,5c0,0,0.1-0.1,0.1-0.2c-0.1,0.1-0.1,0.2-0.1,0.2l-35.9,21.6l-0.1,0.1l-6.5,3.9
				l0,0l-1.2,0.7l0,0l-1.2,0.7c-1.3,0.8-3,0.4-3.9-0.9C819.7,106.2,861.6,80.6,866.9,77.4z"/>
		</g>
	</g>
</g>
</svg>
