<?xml version="1.0" encoding="utf-8"?>
<!-- Generator: Adobe Illustrator 26.5.0, SVG Export Plug-In . SVG Version: 6.00 Build 0)  -->
<svg version="1.1" id="Livello_1" xmlns:sketch="http://www.bohemiancoding.com/sketch/ns"
	 xmlns="http://www.w3.org/2000/svg" xmlns:xlink="http://www.w3.org/1999/xlink" x="0px" y="0px" viewBox="0 0 48 48"
	 style="enable-background:new 0 0 48 48;" xml:space="preserve">
<style type="text/css">
	.st0{clip-path:url(#XMLID_00000139256212614087782420000001055458479963202718_);}
	.st1{fill:#A5344C;}
	.st2{fill:#FFFFFF;}
</style>
<g id="shadow">
	<g>
		<g>
			<defs>
				<circle id="XMLID_00000066504394924973425600000006129835901335872144_" cx="24" cy="24" r="24"/>
			</defs>
			<use xlink:href="#XMLID_00000066504394924973425600000006129835901335872144_"  style="overflow:visible;fill:#EA4157;"/>
			<clipPath id="XMLID_00000058547368419209226510000006846789415365007285_">
				<use xlink:href="#XMLID_00000066504394924973425600000006129835901335872144_"  style="overflow:visible;"/>
			</clipPath>
			<g id="Shadow" style="clip-path:url(#XMLID_00000058547368419209226510000006846789415365007285_);">
				<path class="st1" d="M-0.6,26.7l-0.6,2.4v11.4c0,3.5,4.1,7.6,7.6,7.6l7.3,0l8.2,1l13.6-12.6c0.2-0.1,0.3-0.3,0.5-0.5
					c0.8-0.8,1.3-1.6,1.7-2.6c0.4-0.9,0.6-2,0.7-3.5c0.1-1.5,0.1-2,0.1-5.9s0-4.4-0.1-5.9c-0.1-1.5-0.3-2.6-0.7-3.5
					c-0.4-1-0.9-1.8-1.7-2.6c-0.8-0.8-1.6-1.3-2.6-1.7c-0.9-0.4-2-0.6-3.5-0.7c-1.5-0.1-2-0.1-5.9-0.1s-4.4,0-5.9,0.1
					c-1.5,0.1-2.6,0.3-3.5,0.7c-1,0.4-1.8,0.9-2.6,1.7c-0.1,0.1-0.1,0.1-0.2,0.2c0,0,0,0,0,0L-0.6,26.7z"/>
			</g>
		</g>
		<g id="Symbol">
			<g>
				<path class="st2" d="M24,12.2c3.8,0,4.3,0,5.8,0.1c1.4,0.1,2.2,0.3,2.7,0.5c0.7,0.3,1.2,0.6,1.7,1.1c0.5,0.5,0.8,1,1.1,1.7
					c0.2,0.5,0.4,1.3,0.5,2.7c0.1,1.5,0.1,2,0.1,5.8s0,4.3-0.1,5.8c-0.1,1.4-0.3,2.2-0.5,2.7c-0.3,0.7-0.6,1.2-1.1,1.7
					c-0.5,0.5-1,0.8-1.7,1.1c-0.5,0.2-1.3,0.4-2.7,0.5c-1.5,0.1-2,0.1-5.8,0.1s-4.3,0-5.8-0.1c-1.4-0.1-2.2-0.3-2.7-0.5
					c-0.7-0.3-1.2-0.6-1.7-1.1c-0.5-0.5-0.8-1-1.1-1.7c-0.2-0.5-0.4-1.3-0.5-2.7c-0.1-1.5-0.1-2-0.1-5.8s0-4.3,0.1-5.8
					c0.1-1.4,0.3-2.2,0.5-2.7c0.3-0.7,0.6-1.2,1.1-1.7c0.5-0.5,1-0.8,1.7-1.1c0.5-0.2,1.3-0.4,2.7-0.5C19.7,12.2,20.2,12.2,24,12.2
					 M24,9.6c-3.9,0-4.4,0-5.9,0.1c-1.5,0.1-2.6,0.3-3.5,0.7c-0.9,0.4-1.8,0.9-2.6,1.7s-1.3,1.6-1.7,2.6c-0.4,0.9-0.6,2-0.7,3.5
					c-0.1,1.5-0.1,2-0.1,5.9s0,4.4,0.1,5.9c0.1,1.5,0.3,2.6,0.7,3.5c0.4,0.9,0.9,1.8,1.7,2.6c0.8,0.8,1.6,1.3,2.6,1.7
					c0.9,0.4,2,0.6,3.5,0.7c1.5,0.1,2,0.1,5.9,0.1s4.4,0,5.9-0.1c1.5-0.1,2.6-0.3,3.5-0.7c0.9-0.4,1.8-0.9,2.6-1.7
					c0.8-0.8,1.3-1.6,1.7-2.6c0.4-0.9,0.6-2,0.7-3.5c0.1-1.5,0.1-2,0.1-5.9s0-4.4-0.1-5.9c-0.1-1.5-0.3-2.6-0.7-3.5
					c-0.4-0.9-0.9-1.8-1.7-2.6c-0.8-0.8-1.6-1.3-2.6-1.7c-0.9-0.4-2-0.6-3.5-0.7C28.4,9.6,27.9,9.6,24,9.6L24,9.6z"/>
				<path class="st2" d="M24,16.6c-4.1,0-7.4,3.3-7.4,7.4s3.3,7.4,7.4,7.4s7.4-3.3,7.4-7.4S28.1,16.6,24,16.6z M24,28.8
					c-2.7,0-4.8-2.1-4.8-4.8s2.1-4.8,4.8-4.8s4.8,2.1,4.8,4.8S26.7,28.8,24,28.8z"/>
				<circle class="st2" cx="31.7" cy="16.3" r="1.7"/>
			</g>
		</g>
	</g>
</g>
</svg>
